<svg width="56" height="61" viewBox="0 0 56 61" fill="none" xmlns="http://www.w3.org/2000/svg">
<path fill-rule="evenodd" clip-rule="evenodd" d="M28 0C21.149 0 15.4997 5.14481 14.7048 11.7816C13.5948 11.9942 12.5723 12.3015 11.5915 12.7512C8.757 14.0506 6.35743 16.1399 4.68046 18.7687C3.66546 20.3597 3.06318 22.1396 2.59005 24.3109C2.12651 26.4381 1.75818 29.0902 1.28958 32.4642L1.26362 32.651C0.660591 36.9928 0.189177 40.3869 0.0459953 43.1208C-0.099381 45.8966 0.0764829 48.2097 0.911517 50.3334C2.27633 53.8044 4.79633 56.6986 8.04657 58.5279C10.0352 59.6472 12.3021 60.1396 15.0715 60.3774C17.7991 60.6117 21.2258 60.6117 25.6092 60.6117H30.3908C34.7742 60.6117 38.2009 60.6117 40.9285 60.3774C43.6979 60.1396 45.9648 59.6472 47.9534 58.5279C51.2037 56.6986 53.7237 53.8044 55.0885 50.3334C55.9235 48.2097 56.0994 45.8966 55.954 43.1208C55.8108 40.3868 55.3394 36.9926 54.7363 32.6507L54.7104 32.4641C54.2418 29.0901 53.8735 26.4381 53.4099 24.3109C52.9368 22.1396 52.3345 20.3597 51.3195 18.7687C49.6426 16.1399 47.243 14.0506 44.4085 12.7512C43.4277 12.3015 42.4052 11.9942 41.2952 11.7816C40.5003 5.14481 34.851 0 28 0ZM25.5829 11.2766C23.0398 11.2766 20.8992 11.2766 19.0664 11.348C19.9948 7.27125 23.6421 4.22872 28 4.22872C32.3579 4.22872 36.0052 7.27125 36.9336 11.348C35.1008 11.2766 32.9602 11.2766 30.4171 11.2766H25.5829ZM18.2186 25.9916C17.3929 25.1659 16.0542 25.1659 15.2285 25.9916C14.4028 26.8173 14.4028 28.1561 15.2285 28.9818L16.3561 30.1094C22.7869 36.5402 33.2133 36.5402 39.6442 30.1094L40.7718 28.9818C41.5975 28.1561 41.5975 26.8173 40.7718 25.9916C39.9461 25.1659 38.6074 25.1659 37.7817 25.9916L36.654 27.1193C31.8746 31.8987 24.1257 31.8987 19.3463 27.1193L18.2186 25.9916Z" fill="#FAFAFA"/>
</svg>
