<svg width="84" height="59" viewBox="0 0 84 59" fill="none" xmlns="http://www.w3.org/2000/svg">
<path fill-rule="evenodd" clip-rule="evenodd" d="M20.8929 0C8.18091 0 -1.58387 11.2589 0.213869 23.8431L1.08904 29.9693L6.60879 49.2884C8.20892 54.8888 13.3278 58.75 19.1523 58.75C23.5912 58.75 27.7255 56.4929 30.1259 52.759L31.5449 50.5517C36.334 43.1019 47.2239 43.1019 52.0131 50.5517L52.8811 51.9019C55.6248 56.17 60.3506 58.75 65.4245 58.75C72.8453 58.75 79.1369 53.2934 80.1864 45.9471L83.3441 23.8431C85.1418 11.2589 75.377 0 62.6651 0C59.7423 0 56.8521 0.613348 54.1813 1.80039L52.1687 2.69487C48.2824 4.42212 46.7091 5.10557 45.1241 5.44203C42.9186 5.91022 40.6394 5.91022 38.4339 5.44203C36.8489 5.10557 35.2756 4.42212 31.3893 2.69487L29.3767 1.80039C26.7058 0.613346 23.8156 0 20.8929 0ZM22.8273 15.1613C24.3973 15.1613 25.67 16.434 25.67 18.004V22.7419H30.4079C31.9779 22.7419 33.2507 24.0147 33.2507 25.5847C33.2507 27.1547 31.9779 28.4274 30.4079 28.4274H25.67V33.1653C25.67 34.7353 24.3973 36.0081 22.8273 36.0081C21.2573 36.0081 19.9846 34.7353 19.9846 33.1653V28.4274H15.2467C13.6767 28.4274 12.4039 27.1547 12.4039 25.5847C12.4039 24.0147 13.6767 22.7419 15.2467 22.7419H19.9846V18.004C19.9846 16.434 21.2573 15.1613 22.8273 15.1613ZM60.7308 21.7944C62.8241 21.7944 64.5211 20.0974 64.5211 18.004C64.5211 15.9107 62.8241 14.2137 60.7308 14.2137C58.6374 14.2137 56.9404 15.9107 56.9404 18.004C56.9404 20.0974 58.6374 21.7944 60.7308 21.7944ZM53.1501 29.375C55.2435 29.375 56.9404 27.678 56.9404 25.5847C56.9404 23.4913 55.2435 21.7944 53.1501 21.7944C51.0568 21.7944 49.3598 23.4913 49.3598 25.5847C49.3598 27.678 51.0568 29.375 53.1501 29.375ZM72.1017 25.5847C72.1017 27.678 70.4047 29.375 68.3114 29.375C66.2181 29.375 64.5211 27.678 64.5211 25.5847C64.5211 23.4913 66.2181 21.7944 68.3114 21.7944C70.4047 21.7944 72.1017 23.4913 72.1017 25.5847ZM60.7308 36.9556C62.8241 36.9556 64.5211 35.2587 64.5211 33.1653C64.5211 31.072 62.8241 29.375 60.7308 29.375C58.6374 29.375 56.9404 31.072 56.9404 33.1653C56.9404 35.2587 58.6374 36.9556 60.7308 36.9556Z" fill="#FAFAFA"/>
</svg>
