<svg width="86" height="66" viewBox="0 0 86 66" fill="none" xmlns="http://www.w3.org/2000/svg">
<path d="M72.8502 5.52748C67.2832 2.94525 61.3308 1.06859 55.1077 0C54.3434 1.36989 53.4506 3.21243 52.8349 4.67815C46.2196 3.69185 39.6651 3.69185 33.1715 4.67815C32.556 3.21243 31.6428 1.36989 30.8717 0C24.6419 1.06859 18.6826 2.95214 13.1157 5.54116C1.88714 22.3631 -1.15674 38.7672 0.365201 54.9384C7.81257 60.4521 15.03 63.8015 22.1256 65.9932C23.8775 63.6028 25.44 61.0617 26.786 58.3836C24.2224 57.4179 21.7671 56.2261 19.447 54.8425C20.0625 54.3905 20.6646 53.9178 21.2462 53.4315C35.3969 59.9932 50.7719 59.9932 64.7535 53.4315C65.342 53.9178 65.9439 54.3905 66.5527 54.8425C64.2258 56.2329 61.7637 57.4246 59.2001 58.3905C60.5461 61.0617 62.1019 63.6097 63.8606 66C70.963 63.8082 78.1871 60.459 85.6345 54.9384C87.4203 36.1919 82.5839 19.9384 72.8502 5.52748ZM28.7139 44.9932C24.466 44.9932 20.9824 41.0617 20.9824 36.274C20.9824 31.4864 24.3916 27.548 28.7139 27.548C33.0363 27.548 36.5198 31.4795 36.4454 36.274C36.4521 41.0617 33.0363 44.9932 28.7139 44.9932ZM57.2858 44.9932C53.0379 44.9932 49.5543 41.0617 49.5543 36.274C49.5543 31.4864 52.9634 27.548 57.2858 27.548C61.6081 27.548 65.0917 31.4795 65.0173 36.274C65.0173 41.0617 61.6081 44.9932 57.2858 44.9932Z" fill="white"/>
</svg>
