<svg width="102" height="60" viewBox="0 0 102 60" fill="none" xmlns="http://www.w3.org/2000/svg">
<path fill-rule="evenodd" clip-rule="evenodd" d="M99.6594 4.0628C100.368 1.72087 99.6594 0 96.2849 0H85.126C82.2887 0 80.9807 1.48658 80.2713 3.12584C80.2713 3.12584 74.5966 16.826 66.5577 25.7252C63.9569 28.3012 62.7746 29.1208 61.3559 29.1208C60.6467 29.1208 59.6199 28.3012 59.6199 25.9594V4.06282C59.6199 1.25249 58.7965 0 56.4319 0H38.8966C37.1235 0 36.0571 1.30434 36.0571 2.5405C36.0571 5.20463 40.0764 5.81901 40.4907 13.3132V29.5894C40.4907 33.1579 39.84 33.8049 38.4214 33.8049C34.6385 33.8049 25.4366 20.0435 19.979 4.2969C18.9094 1.23632 17.8366 0 14.9848 0H3.82592C0.637681 0 0 1.48658 0 3.12584C0 6.0533 3.78309 20.5731 17.6147 39.7766C26.8357 52.891 39.8275 60 51.6495 60C58.7426 60 59.6201 58.421 59.6201 55.7013V45.7895C59.6201 42.6316 60.2921 42.0014 62.5383 42.0014C64.1933 42.0014 67.0306 42.821 73.651 49.1441C81.217 56.6381 82.4644 60 86.7202 60H97.879C101.067 60 102.661 58.4211 101.742 55.3051C100.735 52.1995 97.123 47.6938 92.3298 42.3526C89.7288 39.3082 85.8276 36.0297 84.6453 34.39C82.9903 32.2826 83.4632 31.3456 84.6453 29.4723C84.6453 29.4723 98.2408 10.5029 99.6594 4.0628V4.0628Z" fill="white"/>
</svg>
